<svg xmlns="http://www.w3.org/2000/svg" viewBox="0 0 64 64">
  <path fill="#092018" d="M20 58h24l-4-20H24z"/>
  <path fill="#1d6752" d="M20 30h24l4 18H16z"/>
  <path fill="#44a884" d="M22 21c0-7 4-13 10-13s10 6 10 13v12H22z"/>
  <path fill="#a3e0bd" d="M26 18c1-5 3-8 6-8s5 3 6 8l-3 6h-6z"/>
  <path fill="#17352c" d="M20 18 15 8l11 5 6-8 6 8 11-5-5 10-9-3-3-5-4 5z"/>
  <path fill="#79d69f" d="M18 36h28l-6 9H24z"/>
  <circle cx="29" cy="19" r="1.4" fill="#06130f"/>
  <circle cx="36" cy="19" r="1.4" fill="#06130f"/>
  <circle cx="32" cy="31" r="4" fill="#b6ffe0" opacity=".72"/>
</svg>
